# xmcd
#
# Track frame offsets: 
#        150
#        10257
#        21472
#        32337
#        43855
#        54620
#        67935
#        79225
#        90552
#        100642
#        111582
#        122460
#
# Disc length: 1775 seconds
#
# Revision: 1
# Processed by: cddbd v1.4PL0 Copyright (c) Steve Scherf et al.
# Submitted via: ExactAudioCopy v0.90b3
#
DISCID=9306ed0c
DTITLE=George Jones - My Favorites Of Hank Williams
DYEAR=1900
DGENRE=Country
TTITLE0=You're Gonna Change (Or I'm Gonna Leave)
TTITLE1=You Win Again
TTITLE2=Mansion On The Hill
TTITLE3=I Just Don't Like This Kind Of Livin'
TTITLE4=Lonesome Whistle
TTITLE5=Wedding Bells
TTITLE6=Your Cheatin' Heart
TTITLE7=They'll Never Take Her Love Away From Me
TTITLE8=I Heard You Crying In Your Sleep
TTITLE9=A House Without Love
TTITLE10=I Could Never Be Ashamed Of You
TTITLE11=Take These Chains From My Heart
EXTD=
EXTT0=
EXTT1=
EXTT2=
EXTT3=
EXTT4=
EXTT5=
EXTT6=
EXTT7=
EXTT8=
EXTT9=
EXTT10=
EXTT11=
PLAYORDER=
